<?xml version="1.0" encoding="UTF-8" standalone="no"?>
<!-- Created with Inkscape (http://www.inkscape.org/) -->

<svg
   xmlns:dc="http://purl.org/dc/elements/1.1/"
   xmlns:cc="http://creativecommons.org/ns#"
   xmlns:rdf="http://www.w3.org/1999/02/22-rdf-syntax-ns#"
   xmlns:svg="http://www.w3.org/2000/svg"
   xmlns="http://www.w3.org/2000/svg"
   xmlns:sodipodi="http://sodipodi.sourceforge.net/DTD/sodipodi-0.dtd"
   xmlns:inkscape="http://www.inkscape.org/namespaces/inkscape"
   id="svg2"
   version="1.1"
   inkscape:version="0.91 r13725"
   width="207.11172"
   height="209.03848"
   viewBox="0 0 207.11173 209.03849"
   sodipodi:docname="bottling-line.svg"
   inkscape:export-filename="/home/walmes/Projects/CPI/apostila/img/bottling-line.png"
   inkscape:export-xdpi="120"
   inkscape:export-ydpi="120">
  <metadata
     id="metadata8">
    <rdf:RDF>
      <cc:Work
         rdf:about="">
        <dc:format>image/svg+xml</dc:format>
        <dc:type
           rdf:resource="http://purl.org/dc/dcmitype/StillImage" />
        <dc:title></dc:title>
      </cc:Work>
    </rdf:RDF>
  </metadata>
  <defs
     id="defs6">
    <marker
       inkscape:stockid="Arrow1Lend"
       orient="auto"
       refY="0"
       refX="0"
       id="Arrow1Lend"
       style="overflow:visible"
       inkscape:isstock="true">
      <path
         id="path4153"
         d="M 0,0 5,-5 -12.5,0 5,5 0,0 Z"
         style="fill:#000000;fill-opacity:1;fill-rule:evenodd;stroke:#000000;stroke-width:1pt;stroke-opacity:1"
         transform="matrix(-0.8,0,0,-0.8,-10,0)"
         inkscape:connector-curvature="0" />
    </marker>
  </defs>
  <sodipodi:namedview
     pagecolor="#ffffff"
     bordercolor="#666666"
     borderopacity="1"
     objecttolerance="10"
     gridtolerance="10"
     guidetolerance="10"
     inkscape:pageopacity="0"
     inkscape:pageshadow="2"
     inkscape:window-width="1627"
     inkscape:window-height="1026"
     id="namedview4"
     showgrid="false"
     fit-margin-top="5"
     fit-margin-left="5"
     fit-margin-right="5"
     fit-margin-bottom="5"
     inkscape:zoom="2.570806"
     inkscape:cx="187.63618"
     inkscape:cy="81.766245"
     inkscape:window-x="53"
     inkscape:window-y="24"
     inkscape:window-maximized="1"
     inkscape:current-layer="svg2" />
  <path
     style="fill:#000000"
     d="m 30.772831,165.68796 c 0,-0.50791 -0.200001,-0.6 -1.303035,-0.6 -3.014164,0 -7.034479,-2.24297 -8.912256,-4.97223 -2.882046,-4.18891 -2.793213,-10.0098 0.212918,-13.9517 1.98124,-2.59798 4.94733,-4.28166 8.188948,-4.64841 1.498581,-0.16953 1.813425,-0.30261 1.813425,-0.76641 0,-0.54644 1.560129,-0.56124 59.100003,-0.56124 57.443586,0 59.100006,0.0157 59.100006,0.55868 0,0.45393 0.31044,0.59518 1.65533,0.75325 4.83902,0.56873 8.69215,3.68764 10.18741,8.24618 0.77724,2.36957 0.54064,6.21409 -0.52525,8.53457 -1.61455,3.51491 -5.5715,6.3575 -9.33962,6.70937 -1.66012,0.15504 -1.97787,0.27413 -1.97787,0.74132 0,0.54027 -1.73537,0.55663 -59.100006,0.55663 -58.900002,0 -59.100003,-0.002 -59.100003,-0.6 z m 52.200003,-2.58718 c 0,-0.10295 -0.578301,-0.69622 -1.28511,-1.31838 -4.675354,-4.1154 -4.804585,-12.03618 -0.272784,-16.71943 l 1.524063,-1.575 -22.918802,0 -22.918798,0 1.460793,1.46078 c 1.816746,1.81676 2.895384,3.90492 3.293265,6.37556 0.615435,3.8215 -0.760959,7.96897 -3.474762,10.47045 -0.719328,0.66307 -1.307868,1.27028 -1.307868,1.34938 0,0.0791 10.327501,0.14383 22.950001,0.14383 12.622501,0 22.950002,-0.0842 22.950002,-0.18719 z m 59.700006,0.0434 c 0,-0.0791 -0.58854,-0.68632 -1.30787,-1.34938 -4.70667,-4.33845 -4.83445,-12.04869 -0.27803,-16.7759 l 1.47559,-1.5309 -22.90913,0 -22.909138,0 1.555217,1.55521 c 4.475041,4.47504 4.500371,11.8063 0.0567,16.41651 -0.81296,0.84344 -1.411798,1.59984 -1.33074,1.6809 0.19039,0.19039 45.647381,0.19393 45.647381,0.004 z M 32.448583,156.84867 c 3.483633,-2.28256 1.911951,-7.65605 -2.240343,-7.65959 -4.462462,-0.004 -5.796144,5.79647 -1.814085,7.88959 1.190904,0.62598 2.89563,0.52927 4.054428,-0.22999 z m 59.763573,-0.0422 c 0.997899,-0.65309 1.858263,-2.21377 1.859556,-3.37319 0.0027,-2.44282 -1.778793,-4.2431 -4.198878,-4.2431 -4.454868,0 -5.78073,5.82864 -1.794021,7.88672 1.177125,0.60767 2.970972,0.49031 4.133343,-0.27043 z m 59.681504,0.005 c 3.4275,-2.20718 1.75246,-7.62601 -2.35623,-7.6225 -3.87863,0.003 -5.62434,4.67034 -2.72754,7.29191 1.24981,1.13106 3.60309,1.2841 5.08377,0.33059 z M 36.023581,137.6812 c -0.259335,-0.39579 -0.601848,-1.17405 -0.761136,-1.72945 -0.387729,-1.35194 -0.371304,-19.40191 0.02034,-22.36709 0.451008,-3.41453 1.131465,-6.3058 1.786014,-7.58883 0.956274,-1.87445 1.790841,-10.176946 1.523667,-15.157876 -0.02655,-0.495 0.114774,-1.40625 0.314058,-2.025 l 0.362331,-1.125 2.753826,0 c 2.634271,0 2.768428,0.032 3.090049,0.73792 0.52758,1.15792 0.780198,3.65244 0.394047,3.8911 -0.204414,0.12633 -0.275634,0.74977 -0.184314,1.61344 0.08186,0.77415 0.28956,2.82504 0.461565,4.55754 0.43722,4.403886 0.846162,6.540336 1.495539,7.813226 1.555026,3.0481 2.180727,9.47111 2.04444,20.98678 -0.09269,7.83181 -0.151587,8.65079 -0.701187,9.75 l -0.6,1.2 -5.763865,0.0814 -5.763867,0.0815 -0.471519,-0.71964 z m 10.734892,-2.59324 c 0.153195,-0.58914 0.207618,-5.65863 0.12399,-11.55 -0.160587,-11.31335 -0.357732,-13.08165 -1.85505,-16.63913 -0.847938,-2.0146 -1.357288,-5.22939 -1.986172,-12.535876 -0.324456,-3.76959 -0.4314,-4.275 -0.90459,-4.275 -0.649407,0 -0.676188,0.15185 -1.322763,7.5 -0.545247,6.196606 -0.808161,7.706096 -1.646073,9.450836 -1.326756,2.76263 -1.590708,5.37341 -1.718889,17.00167 -0.08587,7.79005 -0.02274,11.18664 0.216225,11.63315 0.321984,0.60163 0.532608,0.62682 4.578897,0.54749 l 4.241389,-0.0831 0.273036,-1.05 z m 12.999213,2.56108 c -0.816684,-1.24641 -1.006626,-4.13949 -0.896913,-13.66108 0.118182,-10.25633 0.535188,-14.11808 1.895112,-17.55001 0.943482,-2.38099 1.055307,-3.01313 1.667146,-9.424366 0.308409,-3.23173 0.346866,-4.73818 0.127698,-5.00226 -0.333478,-0.40182 -0.1476,-2.1077 0.381195,-3.49837 0.311082,-0.81811 0.336924,-0.825 3.094782,-0.825 2.981205,0 3.004314,0.0137 3.2847,1.95 0.02388,0.165 0.152562,0.673 0.285933,1.1289 0.15921,0.54421 0.115725,0.98164 -0.126603,1.27363 -0.693525,0.83565 0.536916,11.848206 1.539822,13.781556 1.433922,2.76422 1.791015,5.65665 2.039022,16.51592 0.238815,10.45667 0.08952,13.5715 -0.726057,15.14866 l -0.466098,0.90134 -5.807793,0 -5.807794,0 z m 10.822441,-1.73608 c 0.133488,-0.20625 0.225918,-5.03249 0.205398,-10.72499 -0.04116,-11.41977 -0.392043,-14.94099 -1.793652,-18.00002 -0.822465,-1.79503 -1.385475,-5.10563 -1.913214,-11.249996 -0.48192,-5.61091 -0.531756,-5.85 -1.219419,-5.85 -0.407766,0 -0.586779,0.20563 -0.587625,0.675 -0.0021,1.24115 -0.892275,10.547226 -1.221639,12.773236 -0.178887,1.20904 -0.639003,2.82904 -1.022481,3.6 -1.423417,2.86174 -1.783858,6.42689 -1.794727,17.75178 -0.0055,5.69249 0.08708,10.58624 0.20565,10.87499 0.191307,0.46588 0.70446,0.525 4.557295,0.525 3.143925,0 4.408668,-0.10346 4.584414,-0.375 z m 13.169173,1.8 c -1.015986,-1.56801 -1.137882,-3.28523 -0.988476,-13.92522 0.149529,-10.64852 0.422211,-13.54535 1.562217,-16.5961 0.247386,-0.66203 0.639465,-1.70994 0.871287,-2.32869 0.52806,-1.40944 1.403331,-10.017096 1.304112,-12.824996 -0.04081,-1.155 0.03285,-2.60625 0.163689,-3.225 0.209871,-0.99249 0.3423,-1.125 1.124298,-1.125 l 0.886407,0 0,-3.45 0,-3.45 -0.75,0 -0.75,0 0,-4.70824 0,-4.70824 -3.560265,-9.166762 c -1.958148,-5.041716 -3.654745,-9.470508 -3.770218,-9.841758 l -0.209952,-0.675 10.220218,0 c 5.621121,0 10.220223,0.08417 10.220223,0.187047 0,0.102879 -1.687501,4.527957 -3.750006,9.833511 l -3.75,9.646462 0,4.71649 0,4.71649 -0.75,0 -0.75,0 0,3.45 c 0,3.41688 0.0067,3.45 0.701844,3.45 0.447219,0 0.81936,0.25792 1.025757,0.71091 0.516303,1.13316 0.777003,3.45122 0.43488,3.86682 -0.20958,0.25458 -0.176298,1.70003 0.105282,4.57227 0.544425,5.553356 0.910845,7.599306 1.667268,9.309326 1.517694,3.431 1.828092,6.161 1.982554,17.43692 0.14912,10.88572 -0.0134,13.14943 -1.024372,14.2665 -0.434469,0.4801 -1.087035,0.53726 -6.132792,0.53726 -5.526132,0 -5.655918,-0.0144 -6.083955,-0.675 z m 4.886505,-31.05001 c -0.02742,-5.9401 -0.104235,-7.518386 -0.295713,-6.075 -0.460638,3.47236 -0.912723,5.51291 -1.460598,6.59262 -0.579267,1.14159 -1.50666,5.22838 -1.50666,6.63947 0,0.85202 0.03022,0.86791 1.65,0.86791 l 1.65,0 z m 5.737029,7.30814 c 0,-1.50954 -0.981066,-5.79213 -1.656252,-7.22994 -0.388242,-0.82676 -0.901293,-2.7857 -1.140117,-4.3532 l -0.43422,-2.849996 -0.03471,7.574996 -0.0347,7.575 1.65,0 c 1.53966,0 1.65,-0.0479 1.649999,-0.71686 z m -4.2,-40.248056 c 0,-2.49274 0.06792,-2.73966 2.413539,-8.774998 1.327446,-3.415546 2.80905,-7.256332 3.292455,-8.535082 l 0.878913,-2.325 -6.889875,0 -6.889875,0 0.716865,1.875 c 1.165383,3.048117 3.448659,8.874895 4.614144,11.775001 0.928071,2.30934 1.102068,3.123219 1.202562,5.624999 0.06462,1.60875 0.239847,2.925 0.389385,2.925 0.149538,0 0.271887,-1.15421 0.271887,-2.56492 z M 107.46933,137.6668 c -0.82747,-1.26287 -1.01042,-4.83451 -0.77749,-15.17884 0.18885,-8.38665 0.32709,-10.51337 0.83528,-12.84963 0.33494,-1.53979 0.82339,-3.12686 1.08546,-3.52682 0.63936,-0.9758 0.93699,-2.6885 1.50407,-8.655136 0.34826,-3.66431 0.3888,-5.13814 0.14928,-5.42673 -0.34898,-0.4205 -0.17476,-2.09456 0.366,-3.51669 0.31076,-0.81728 0.33944,-0.825 3.06704,-0.825 l 2.75333,0 0.33565,0.975 c 0.62516,1.81603 0.75072,2.9342 0.37967,3.38129 -0.74189,0.89393 0.53953,11.179356 1.78169,14.300866 1.39655,3.50949 1.81082,7.3042 1.92605,17.64285 0.10659,9.56421 -0.0794,12.428 -0.88738,13.66108 l -0.48415,0.73892 -5.78099,0 c -5.77368,0 -5.7816,-9e-4 -6.25351,-0.72116 z m 7.4948,-40.153846 c -0.0978,-0.86625 -0.25602,-2.5875 -0.35157,-3.825 -0.24464,-3.16862 -0.36528,-3.6 -1.00674,-3.6 -0.48635,0 -0.58049,0.34585 -0.75534,2.775 -0.10985,1.52625 -0.2797,3.55125 -0.37744,4.5 l -0.1777,1.725 1.42331,0 1.42332,0 z m 16.48241,40.200006 c -0.86746,-1.33038 -1.05903,-3.46114 -1.05863,-11.77499 6e-4,-11.3064 0.58991,-16.84911 2.09955,-19.74542 0.85453,-1.63945 1.52631,-6.785456 1.63787,-12.546386 0.0529,-2.73194 0.23241,-4.95629 0.42973,-5.325 0.30566,-0.57112 0.59947,-0.63321 2.99623,-0.63321 2.9533,0 2.7635,-0.1358 3.45504,2.47208 0.29495,1.11227 0.29834,1.53708 0.0156,1.95 -0.66154,0.96599 0.63459,11.885696 1.64614,13.868496 0.66266,1.29893 1.34202,4.1779 1.79484,7.60613 0.42047,3.18335 0.40347,20.99912 -0.0215,22.5533 -0.61952,2.26556 -0.57178,2.25 -6.90809,2.25 -5.52531,0 -5.65604,-0.0145 -6.08672,-0.675 z m 7.21713,-41.250006 c -0.434,-5.76289 -0.53904,-6.375 -1.09391,-6.375 -0.62256,0 -0.77975,0.8226 -1.07489,5.625 l -0.20742,3.375 1.28696,0 1.28695,0 z"
     id="path4138"
     inkscape:connector-curvature="0"
     sodipodi:nodetypes="sssscsssssssssssssscccsscssscsscccsssccccsccsssssscsscssssscsccsssssccccccssssssssccccssssssscssssscccsssssscssssssssssssscccccccsscssscccccssscssscssssssscsssscccssssscccssssscsscscsscssssccsccsssscccccssscsscsscsccssscccs" />
  <text
     xml:space="preserve"
     style="font-style:normal;font-variant:normal;font-weight:normal;font-stretch:normal;font-size:22.5px;line-height:89.99999762%;font-family:'Roboto Condensed';-inkscape-font-specification:'Roboto Condensed, Normal';text-align:center;letter-spacing:0px;word-spacing:0px;writing-mode:lr-tb;text-anchor:middle;fill:#000000;fill-opacity:1;stroke:none;stroke-width:1px;stroke-linecap:butt;stroke-linejoin:miter;stroke-opacity:1"
     x="89.115227"
     y="198.56407"
     id="text4140"
     sodipodi:linespacing="89.999998%"><tspan
       sodipodi:role="line"
       id="tspan4142"
       x="89.115227"
       y="198.56407">Velocidade</tspan></text>
  <path
     style="fill:none;fill-rule:evenodd;stroke:#000000;stroke-width:1px;stroke-linecap:butt;stroke-linejoin:miter;stroke-opacity:1;marker-end:url(#Arrow1Lend)"
     d="m 29.428821,174.63448 117.997549,0"
     id="path4144"
     inkscape:connector-curvature="0" />
  <g
     id="g4537"
     transform="matrix(0,1,-1,0,139.12654,-109.33924)" />
  <path
     id="path4493"
     style="fill:#000000"
     d="m 114.47356,51.925029 c 0.0184,-0.202352 0.11587,-0.411158 0.26798,-0.573776 0.22883,-0.244642 0.5079,-0.353154 0.86062,-0.334643 0.18299,0.0096 0.2451,0.02589 0.41049,0.107629 0.32567,0.160953 0.55327,0.474669 0.5831,0.803725 l 0.0138,0.152445 -0.15341,-0.02017 c -0.19928,-0.02624 -1.644,-0.02624 -1.84328,0 l -0.15342,0.02017 0.0141,-0.15538 z m 0.89051,4.334912 -0.0639,-0.06392 0,-0.77112 c 0,-0.784748 0.007,-0.84337 0.10191,-0.916606 0.0856,-0.06575 0.27535,-0.02072 0.34691,0.08229 0.0105,0.01517 0.0193,0.382575 0.0195,0.816491 l 4e-4,0.788941 -0.0639,0.06392 c -0.0888,0.08883 -0.25208,0.08883 -0.34091,0 z m 2.91784,0.820545 c -0.0667,-0.02731 -0.1321,-0.10231 -0.15521,-0.178088 -0.0175,-0.05743 0.10057,-0.324831 0.22097,-0.500414 0.0246,-0.03582 0.14637,-0.246745 0.27071,-0.468746 0.12434,-0.222005 0.25542,-0.430011 0.2913,-0.462238 0.0986,-0.08861 0.25542,-0.06872 0.34144,0.04331 0.0773,0.100664 0.0402,0.219704 -0.19657,0.63124 -0.12647,0.21981 -0.26255,0.45825 -0.30239,0.529866 -0.17582,0.315983 -0.20739,0.358635 -0.29144,0.39375 -0.0969,0.04047 -0.10615,0.04106 -0.17881,0.01131 z m -5.66379,7.88e-4 c -0.0779,-0.02088 -0.12685,-0.09221 -0.45747,-0.666208 -0.43845,-0.761187 -0.41331,-0.706395 -0.37809,-0.823954 0.0393,-0.131109 0.16269,-0.199837 0.29216,-0.162705 0.0866,0.02482 0.13446,0.09456 0.49863,0.726245 0.0578,0.100258 0.13716,0.235023 0.17635,0.299477 0.0392,0.06445 0.10309,0.178915 0.14196,0.254366 0.0622,0.12073 0.0669,0.146259 0.0393,0.212958 -0.0562,0.135605 -0.17564,0.196638 -0.31284,0.159821 z m 7.65396,2.005052 c -0.0938,-0.0938 -0.10045,-0.206705 -0.0175,-0.297956 0.0786,-0.08649 1.31621,-0.79779 1.3881,-0.79779 0.14192,0 0.26344,0.197095 0.21301,0.34549 -0.0266,0.07828 -0.0406,0.08722 -0.85908,0.550139 -0.54334,0.307294 -0.60131,0.323307 -0.7245,0.200117 z m -9.81565,0.02002 c -0.0501,-0.03073 -0.22005,-0.128678 -0.3776,-0.217643 -0.88536,-0.499937 -0.85832,-0.481521 -0.88949,-0.60568 -0.0215,-0.08583 0.0392,-0.210964 0.12364,-0.254625 0.13051,-0.06749 0.0562,-0.100341 1.00022,0.442182 0.24349,0.139931 0.46588,0.27673 0.49419,0.303996 0.0349,0.03357 0.0515,0.08406 0.0515,0.156378 0,0.204112 -0.20788,0.294705 -0.40246,0.175392 z m 5.9895,2.040924 c -0.1048,-0.150058 -0.23995,-0.27528 -0.37453,-0.347011 -0.0983,-0.05242 -0.0998,-0.05518 -0.0521,-0.100203 0.0763,-0.07203 1.07077,-0.985134 1.5609,-1.433234 0.2427,-0.221879 0.53507,-0.491411 0.64971,-0.598954 0.11464,-0.107547 0.33143,-0.308047 0.48177,-0.445555 0.15032,-0.137512 0.57215,-0.52487 0.93738,-0.860802 0.36524,-0.335927 0.72223,-0.662871 0.79332,-0.726536 l 0.12927,-0.115758 -0.16833,0.205665 c -0.0926,0.113114 -0.38363,0.458817 -0.64678,0.768223 -0.56104,0.659656 -0.62114,0.730442 -0.94383,1.111716 -0.54029,0.638391 -1.2738,1.501542 -1.55825,1.833643 -0.1656,0.19336 -0.3874,0.454294 -0.49288,0.579856 -0.10548,0.125561 -0.20035,0.233585 -0.21082,0.240059 -0.0105,0.0065 -0.0577,-0.04353 -0.10485,-0.111109 z m 4.62892,0.825573 c -0.12814,-0.07464 -0.14899,-0.286589 -0.0383,-0.389683 0.0518,-0.04826 0.0967,-0.05094 0.85473,-0.05094 l 0.80006,0 0.07,0.08319 c 0.0569,0.06762 0.0672,0.100525 0.0553,0.175779 -0.009,0.05374 -0.043,0.117169 -0.0822,0.15118 -0.0667,0.05798 -0.0756,0.05859 -0.84072,0.0578 -0.47662,-3.94e-4 -0.79077,-0.01099 -0.81886,-0.02734 z m -12.75583,-0.048 c -0.0814,-0.0814 -0.0971,-0.174302 -0.0458,-0.270639 0.0634,-0.119013 0.0729,-0.120286 0.9027,-0.121157 l 0.78976,-7.88e-4 0.0761,0.07612 c 0.0801,0.08014 0.0923,0.138461 0.0512,0.246454 -0.0519,0.136546 -0.11377,0.146172 -0.93932,0.146172 l -0.75851,0 -0.0761,-0.07612 z m 6.96811,0.666251 c -0.24846,-0.08229 -0.41316,-0.224806 -0.52646,-0.455523 -0.0621,-0.126413 -0.0725,-0.179514 -0.0725,-0.369525 0,-0.197805 0.009,-0.240603 0.0848,-0.394116 0.34419,-0.699149 1.36652,-0.59737 1.58608,0.157898 0.11682,0.401831 -0.0954,0.853391 -0.4814,1.024552 -0.15035,0.06666 -0.44482,0.08497 -0.59051,0.03672 z m -2.30243,1.800305 -0.47278,-0.450342 0.15095,-0.143225 c 0.083,-0.07878 0.30293,-0.283854 0.48868,-0.455729 0.18575,-0.171874 0.42613,-0.394529 0.53418,-0.494787 0.53237,-0.493983 0.76322,-0.703841 0.78234,-0.71117 0.0115,-0.0044 0.045,0.04614 0.0743,0.112374 0.0697,0.157571 0.34411,0.427284 0.51694,0.508097 0.0752,0.03515 0.13667,0.06995 0.13663,0.07731 -6e-5,0.0074 -0.26501,0.32393 -0.5888,0.703483 -0.32379,0.379557 -0.70179,0.823922 -0.83998,0.987482 -0.13819,0.163561 -0.2644,0.301763 -0.28046,0.307117 -0.0161,0.0054 -0.24194,-0.192922 -0.50196,-0.440614 z m 8.22687,0.928628 c -0.17903,-0.10612 -0.37825,-0.222474 -0.4427,-0.258562 -0.48724,-0.272821 -0.53487,-0.308302 -0.56268,-0.419128 -0.0264,-0.105222 0.0575,-0.250311 0.16205,-0.280063 0.0874,-0.0249 0.18137,0.0092 0.43969,0.159707 0.0716,0.04172 0.2474,0.14358 0.39062,0.226359 0.59769,0.345431 0.61781,0.359162 0.65432,0.446536 0.0266,0.06369 0.0285,0.102976 0.008,0.157642 -0.0877,0.230567 -0.21609,0.224141 -0.64905,-0.03251 z m -11.96376,0.116421 c -0.13958,-0.165893 -0.0694,-0.287231 0.28415,-0.491182 0.14323,-0.08263 0.41742,-0.241052 0.60932,-0.352055 0.19191,-0.111006 0.3794,-0.212277 0.41667,-0.225043 0.1035,-0.03546 0.21639,0.0076 0.27267,0.103942 0.0679,0.116255 0.0261,0.264031 -0.0947,0.3351 -0.0463,0.02723 -0.16616,0.09712 -0.26642,0.155361 -0.10026,0.05824 -0.35568,0.206717 -0.56761,0.329946 -0.44894,0.261049 -0.53883,0.280832 -0.65403,0.143931 z m 9.71823,2.653534 c -0.0674,-0.02404 -0.17581,-0.181497 -0.39112,-0.568221 -0.0359,-0.06445 -0.1077,-0.190428 -0.1596,-0.279945 -0.32754,-0.564986 -0.32642,-0.562145 -0.26547,-0.680015 0.0497,-0.09617 0.11304,-0.133785 0.22517,-0.133785 0.12236,0 0.19697,0.09623 0.52498,0.67708 0.15771,0.279295 0.30875,0.546254 0.33563,0.593236 0.0685,0.119683 0.0641,0.269225 -0.01,0.336302 -0.0744,0.06752 -0.16909,0.0877 -0.25987,0.05535 z m -7.0418,-1.42e-4 c -0.0798,-0.02069 -0.16573,-0.142958 -0.16573,-0.235776 0,-0.05679 0.6858,-1.24465 0.77446,-1.341421 0.13397,-0.14622 0.32413,-0.101317 0.40057,0.09458 0.0133,0.03412 0.0173,0.08364 0.009,0.110045 -0.008,0.0264 -0.13347,0.250442 -0.27796,0.497857 -0.1445,0.247419 -0.30289,0.520162 -0.35199,0.606101 -0.15113,0.264532 -0.22005,0.312208 -0.38831,0.26861 z m 3.45524,0.895452 -0.0793,-0.07933 0,-0.785253 0,-0.785253 0.0793,-0.07933 c 0.0686,-0.06855 0.0924,-0.07724 0.17578,-0.06398 0.0575,0.0091 0.12009,0.04256 0.15504,0.08279 0.058,0.0667 0.0586,0.07595 0.0586,0.845778 0,0.769827 -7.9e-4,0.779079 -0.0586,0.845778 -0.035,0.04023 -0.0975,0.07363 -0.15504,0.08279 -0.0833,0.01328 -0.10723,0.0046 -0.17578,-0.06398 z m 0.914,0.775197 c 1.55942,-0.155408 3.01128,-0.743877 4.24368,-1.720055 0.31402,-0.248735 0.92414,-0.849647 1.18764,-1.16972 0.90841,-1.103441 1.52486,-2.467183 1.73631,-3.841122 0.10824,-0.703384 0.12032,-1.665724 0.0294,-2.343737 -0.30742,-2.292756 -1.60119,-4.346012 -3.54964,-5.633405 -1.06958,-0.706702 -2.25931,-1.130747 -3.59907,-1.282783 -0.34909,-0.03961 -1.2854,-0.03909 -1.64061,7.88e-4 -2.77068,0.312173 -5.13379,1.954622 -6.36751,4.425647 -0.94476,1.892265 -1.09375,4.097403 -0.41367,6.122384 0.67779,2.018162 2.11714,3.672136 4.02549,4.625749 0.88876,0.444117 1.80083,0.71067 2.78173,0.812964 0.31587,0.03294 1.24839,0.03479 1.56624,0.0032 z m -1.40999,1.519414 c -2.34842,-0.175755 -4.5046,-1.165523 -6.12425,-2.811271 -0.85017,-0.863871 -1.4968,-1.810821 -1.96022,-2.870641 -0.40244,-0.920366 -0.6636,-1.926142 -0.7582,-2.919961 -0.0515,-0.540729 -0.0383,-1.625475 0.0254,-2.105447 0.35912,-2.701076 1.79236,-5.074657 3.99953,-6.62359 1.06498,-0.747377 2.348,-1.290888 3.67185,-1.555475 0.72412,-0.144722 1.94452,-0.199956 2.68417,-0.121475 1.0137,0.107555 1.83586,0.3074 2.69833,0.655901 1.72257,0.696035 3.23671,1.919235 4.30204,3.475399 0.86102,1.257719 1.40317,2.716013 1.59695,4.295534 0.0535,0.435783 0.0446,1.803311 -0.0145,2.239567 -0.26204,1.934386 -1.0274,3.645643 -2.27117,5.078097 -1.82181,2.098205 -4.49923,3.304222 -7.27438,3.27668 -0.25215,-0.0024 -0.51119,-0.0085 -0.57564,-0.01332 z m -12.00438,-11.229865 2.97081,0 -0.0149,0.07161 c -0.0778,0.373998 -0.14489,1.147375 -0.14513,1.673168 -2.3e-4,0.517502 0.0644,1.258129 0.14595,1.673167 l 0.0141,0.07161 -2.97081,0 -2.9708,0 0,-1.74478 0,-1.74478 2.9708,0 z m -5.089156,-0.659404 c 0.0094,-0.0094 0.442966,-0.01702 0.963534,-0.01698 l 0.946489,5.6e-5 0,2.40847 0,2.408471 -0.963534,0 -0.963538,0 0,-2.391481 c 0,-1.315312 0.0077,-2.399148 0.01706,-2.408522 z m -1.143344,0.6594 0.930984,-4e-6 -0.0069,1.744784 -0.0069,1.744784 -0.924108,0 -0.924113,0 0,-1.74478 0,-1.74478 0.930984,-4e-6 z"
     inkscape:connector-curvature="0" />
  <text
     xml:space="preserve"
     style="font-style:normal;font-variant:normal;font-weight:normal;font-stretch:normal;font-size:22.5px;line-height:89.99999762%;font-family:'Roboto Condensed';-inkscape-font-specification:'Roboto Condensed, Normal';text-align:center;letter-spacing:0px;word-spacing:0px;writing-mode:lr-tb;text-anchor:middle;fill:#000000;fill-opacity:1;stroke:none;stroke-width:1px;stroke-linecap:butt;stroke-linejoin:miter;stroke-opacity:1"
     x="163.29314"
     y="69.26564"
     id="text4543"
     sodipodi:linespacing="89.999998%"><tspan
       sodipodi:role="line"
       id="tspan4545"
       x="163.29314"
       y="69.26564">Pressão</tspan></text>
  <path
     id="path4609"
     style="fill:#000000"
     d="m 26.307597,40.771945 c 0.699044,-0.644357 1.009281,-1.403293 0.926368,-2.26618 -0.06528,-0.679422 -0.54295,-1.542905 -0.984129,-1.779015 -0.238817,-0.127811 -0.255294,-0.09872 -0.255294,0.450761 0,1.183179 -0.694265,1.92314 -1.680291,1.790888 -0.781493,-0.104822 -1.128347,-0.528863 -1.221705,-1.493572 l -0.07674,-0.79299 -0.406619,0.463956 c -0.792533,0.904289 -0.826919,2.251261 -0.08239,3.227391 0.560389,0.734708 0.98755,0.914772 2.171341,0.915308 l 1.04856,4.23e-4 0.5609,-0.51702 z m 17.307142,22.66741 c 0.681956,-0.464134 0.934746,-0.901193 0.934746,-1.616123 0,-0.714926 -0.25279,-1.151985 -0.934746,-1.616123 -1.171431,-0.797266 -2.838646,0.151928 -2.838646,1.616123 0,1.036148 0.858517,1.901321 1.886696,1.901321 0.343979,0 0.681466,-0.101108 0.95195,-0.285198 z m -13.787867,16.520217 0.413953,-0.369845 0.03534,-14.175259 c 0.01944,-7.796387 0.0045,-14.3019 -0.03316,-14.456685 -0.09207,-0.378312 -0.668652,-0.89586 -1.10475,-0.991644 -0.50497,-0.110911 -1.195393,0.153901 -1.493767,0.572927 -0.252717,0.354909 -0.255643,0.52247 -0.255643,14.64372 l 0,14.284703 0.430966,0.430966 c 0.364771,0.364775 0.520218,0.430966 1.012038,0.430966 0.462916,0 0.665245,-0.0752 0.995024,-0.369849 z m -7.44484,5.32154 C 21.290617,85.102413 20.63929,84.88532 19.639213,84.366897 17.258606,83.132834 15.64535,80.84729 15.22152,78.108243 15.12849,77.507058 15.096265,73.165684 15.120851,64.548458 l 0.03617,-12.675472 0.344079,-1.014038 c 0.982995,-2.896962 3.126092,-4.907186 6.02083,-5.647535 0.53022,-0.135607 1.154552,-0.246559 1.387403,-0.246559 l 0.423366,0 -5.07e-4,-0.918973 -5.07e-4,-0.918972 -0.570395,-0.234572 c -1.070816,-0.440393 -2.091931,-1.618278 -2.516224,-2.902608 -0.06586,-0.199359 -0.285484,-0.22182 -2.168713,-0.22182 l -2.095429,0 0,1.190125 c 0,0.949089 -0.04493,1.243223 -0.221821,1.452276 -0.342085,0.404275 -0.80834,0.459845 -1.209658,0.144166 l -0.343087,-0.269873 0,-3.476557 c 0,-3.307546 0.01234,-3.488877 0.25351,-3.730062 0.295706,-0.295706 0.86044,-0.330209 1.211631,-0.07402 0.207772,0.151569 0.255905,0.383243 0.309425,1.489368 l 0.06338,1.309883 2.062531,0.03486 c 1.882012,0.03181 2.068709,0.01517 2.133086,-0.190132 0.376591,-1.200836 1.500604,-2.562178 2.427316,-2.939831 0.30226,-0.12318 0.411953,-0.248164 0.411953,-0.469389 0,-0.263874 -0.05933,-0.301533 -0.47533,-0.301706 -0.608315,-2.56e-4 -1.314428,-0.354062 -1.517428,-0.760332 -0.08709,-0.174288 -0.159179,-0.536489 -0.160207,-0.804893 -0.0015,-0.387358 0.08702,-0.576894 0.429098,-0.918971 l 0.430966,-0.430966 2.686646,0 c 2.505409,0 2.711267,0.01753 3.051609,0.259872 0.482467,0.343548 0.720091,1.105458 0.505984,1.622363 -0.258585,0.624276 -0.693102,0.936342 -1.398072,1.00408 -0.877021,0.08427 -0.876863,0.410702 3.8e-4,0.855252 0.351079,0.177908 0.862366,0.525871 1.136194,0.773258 0.503841,0.45516 1.26763,1.794877 1.26763,2.223418 0,0.221723 0.205398,0.233372 4.151217,0.235468 3.07292,0.0017 4.369247,0.04841 4.990587,0.180114 2.342217,0.496469 4.219645,2.234766 5.005287,4.634363 0.206785,0.631585 0.232463,1.384299 0.273035,8.003498 l 0.04478,7.306345 0.816884,0.402151 c 1.875419,0.923264 2.584562,3.093064 1.641118,5.021397 -0.38542,0.787763 -0.877355,1.240827 -1.815616,1.672131 -0.573829,0.263781 -0.818037,0.302369 -1.647811,0.260397 -1.13733,-0.05753 -1.756945,-0.315979 -2.472089,-1.031125 -0.738319,-0.738316 -1.031393,-1.483533 -1.034527,-2.630545 -0.0022,-0.820796 0.05271,-1.067828 0.379893,-1.707572 0.410261,-0.802201 1.287933,-1.584747 2.009606,-1.791796 l 0.396483,-0.11375 0,-7.476555 0,-7.476558 -0.410848,-0.834404 C 40.851629,41.371719 39.953537,40.5125 38.822508,39.981533 l -0.84964,-0.398868 -4.42402,-0.0025 -4.424022,-0.0025 -0.229149,0.673266 c -0.418077,1.228359 -1.561788,2.428096 -2.615933,2.744083 -0.261863,0.0785 -0.285198,0.161097 -0.285198,1.00955 l 0,0.924066 0.770552,0.08054 c 1.761527,0.184111 3.498162,1.051945 4.870034,2.433652 1.012217,1.019472 1.581466,1.912898 2.068737,3.246848 l 0.339602,0.929691 0.03622,13.119114 c 0.04025,14.579222 0.06862,14.020838 -0.805079,15.843947 -1.057863,2.207387 -3.07569,3.879066 -5.44212,4.508547 -0.871579,0.231847 -4.436042,0.356118 -5.450453,0.190027 z"
     inkscape:connector-curvature="0" />
  <path
     style="fill:none;fill-rule:evenodd;stroke:#000000;stroke-width:3;stroke-linecap:butt;stroke-linejoin:miter;stroke-miterlimit:4;stroke-dasharray:none;stroke-opacity:1"
     d="m 45.50349,62.098321 39.092798,0"
     id="path4655"
     inkscape:connector-curvature="0" />
  <text
     xml:space="preserve"
     style="font-style:normal;font-variant:normal;font-weight:normal;font-stretch:normal;font-size:22.5px;line-height:89.99999762%;font-family:'Roboto Condensed';-inkscape-font-specification:'Roboto Condensed, Normal';text-align:center;letter-spacing:0px;word-spacing:0px;writing-mode:lr-tb;text-anchor:middle;fill:#000000;fill-opacity:1;stroke:none;stroke-width:1px;stroke-linecap:butt;stroke-linejoin:miter;stroke-opacity:1"
     x="63.980183"
     y="26.700861"
     id="text4657"
     sodipodi:linespacing="89.999998%"><tspan
       sodipodi:role="line"
       id="tspan4659"
       x="63.980183"
       y="26.700861">Carbonação</tspan></text>
  <path
     style="color:#000000;clip-rule:nonzero;display:inline;overflow:visible;visibility:visible;opacity:1;isolation:auto;mix-blend-mode:normal;color-interpolation:sRGB;color-interpolation-filters:linearRGB;solid-color:#000000;solid-opacity:1;fill:none;fill-opacity:1;fill-rule:nonzero;stroke:#008080;stroke-width:1;stroke-linecap:butt;stroke-linejoin:miter;stroke-miterlimit:4;stroke-dasharray:none;stroke-dashoffset:0;stroke-opacity:1;color-rendering:auto;image-rendering:auto;shape-rendering:auto;text-rendering:auto;enable-background:accumulate"
     d="m 5.5,5.5 0,84.991702 33.588118,0 0,-55.702849 84.979412,0 0,-29.288853 -84.979412,0 -13.778956,0 L 5.5,5.5 Z"
     id="rect4661"
     inkscape:connector-curvature="0" />
  <rect
     style="color:#000000;clip-rule:nonzero;display:inline;overflow:visible;visibility:visible;opacity:1;isolation:auto;mix-blend-mode:normal;color-interpolation:sRGB;color-interpolation-filters:linearRGB;solid-color:#000000;solid-opacity:1;fill:none;fill-opacity:1;fill-rule:nonzero;stroke:#ff6600;stroke-width:1;stroke-linecap:butt;stroke-linejoin:miter;stroke-miterlimit:4;stroke-dasharray:none;stroke-dashoffset:0;stroke-opacity:1;color-rendering:auto;image-rendering:auto;shape-rendering:auto;text-rendering:auto;enable-background:accumulate"
     id="rect4666"
     width="97.918709"
     height="34.656624"
     x="103.69302"
     y="45.108208" />
  <rect
     style="color:#000000;clip-rule:nonzero;display:inline;overflow:visible;visibility:visible;opacity:1;isolation:auto;mix-blend-mode:normal;color-interpolation:sRGB;color-interpolation-filters:linearRGB;solid-color:#000000;solid-opacity:1;fill:none;fill-opacity:1;fill-rule:nonzero;stroke:#800080;stroke-width:0.99999994;stroke-linecap:butt;stroke-linejoin:miter;stroke-miterlimit:4;stroke-dasharray:none;stroke-dashoffset:0;stroke-opacity:1;color-rendering:auto;image-rendering:auto;shape-rendering:auto;text-rendering:auto;enable-background:accumulate"
     id="rect4668"
     width="150.72881"
     height="61.886826"
     x="14.300931"
     y="141.65166" />
</svg>
